<?xml version="1.0" encoding="utf-8"?>
<!-- Generator: Adobe Illustrator 21.1.0, SVG Export Plug-In . SVG Version: 6.00 Build 0)  -->
<svg version="1.1" id="Слой_1" xmlns="http://www.w3.org/2000/svg" xmlns:xlink="http://www.w3.org/1999/xlink" x="0px" y="0px"
	 viewBox="0 0 27.9 34" style="enable-background:new 0 0 27.9 34;" xml:space="preserve">
<path d="M2,19v-9V7h24l-3.1,4.9c-0.4,0.6-0.4,1.5,0,2.1l3.1,4.9H2z M2,32h3.9V21H2V32z M2,5h3.9V2H2V5z M27.6,17.9L24.5,13l3.1-4.9
	C28,7.5,28,6.7,27.7,6c-0.3-0.6-1-1-1.7-1H7.9V2c0-1.1-0.9-2-2-2H2C0.9,0,0,0.9,0,2v3v5v10.1V21v11c0,1.1,0.9,2,2,2h3.9
	c1.1,0,2-0.9,2-2V21h18.1c0.7,0,1.4-0.4,1.7-1C28,19.3,28,18.5,27.6,17.9L27.6,17.9z"/>
</svg>
