<?xml version="1.0" encoding="utf-8"?>
<!-- Generator: Adobe Illustrator 21.1.0, SVG Export Plug-In . SVG Version: 6.00 Build 0)  -->
<svg version="1.1" id="Слой_1" xmlns="http://www.w3.org/2000/svg" xmlns:xlink="http://www.w3.org/1999/xlink" x="0px" y="0px"
	 viewBox="0 0 21 22" style="enable-background:new 0 0 21 22;" xml:space="preserve">
<path d="M10.5,0C4.7,0,0,4.2,0,9.3c0,2.5,1.1,4.7,2.9,6.4C3,15.8,3.1,16,3.1,16.1v5.1c-0.1,0.5,0.5,1,0.9,0.7l4.1-3.3
	c0.1-0.1,0.3-0.2,0.5-0.1c0.6,0.1,1.2,0.2,1.9,0.2c5.8,0,10.5-4.2,10.5-9.3C21,4.2,16.3,0,10.5,0L10.5,0z M10.5,16.1
	c-4.4,0-8-3.1-8-6.8c0-3.8,3.6-6.8,8-6.8c4.4,0,8,3.1,8,6.8C18.5,13,14.9,16.1,10.5,16.1z M8.1,9.5c0,0.7-0.6,1.2-1.2,1.2
	c-0.7,0-1.2-0.6-1.2-1.2c0-0.7,0.6-1.2,1.2-1.2C7.6,8.2,8.1,8.8,8.1,9.5z M11.8,9.5c0,0.7-0.6,1.2-1.2,1.2c-0.7,0-1.2-0.6-1.2-1.2
	c0-0.7,0.6-1.2,1.2-1.2C11.3,8.2,11.8,8.8,11.8,9.5z M15.5,9.5c0,0.7-0.6,1.2-1.2,1.2S13,10.2,13,9.5c0-0.7,0.6-1.2,1.2-1.2
	S15.5,8.8,15.5,9.5z"/>
</svg>
