<?xml version="1.0" encoding="utf-8"?>
<!-- Generator: Adobe Illustrator 21.1.0, SVG Export Plug-In . SVG Version: 6.00 Build 0)  -->
<svg version="1.1" id="Слой_1" xmlns="http://www.w3.org/2000/svg" xmlns:xlink="http://www.w3.org/1999/xlink" x="0px" y="0px"
	 viewBox="0 0 16 25" style="enable-background:new 0 0 16 25;" xml:space="preserve">
<path d="M13.1,0.7v4.7H1.5C0.7,5.4,0,6.1,0,6.9v16.7C0,24.3,0.7,25,1.5,25h13.1c0.8,0,1.5-0.7,1.5-1.5V0.7C16,0.3,15.7,0,15.3,0
	h-1.5C13.4,0,13.1,0.3,13.1,0.7L13.1,0.7z M12.3,22.1H3.7c-0.4,0-0.7-0.3-0.7-0.7V9.1c0-0.4,0.3-0.7,0.7-0.7h8.6
	c0.4,0,0.7,0.3,0.7,0.7v12.3C13.1,21.8,12.7,22.1,12.3,22.1z M10.2,10.3H5.8c-0.4,0-0.7,0.3-0.7,0.7v1.5c0,0.4,0.3,0.7,0.7,0.7h4.4
	c0.4,0,0.7-0.3,0.7-0.7V11C10.9,10.6,10.6,10.3,10.2,10.3z"/>
</svg>
