<?xml version="1.0" encoding="utf-8"?>
<!-- Generator: Adobe Illustrator 21.1.0, SVG Export Plug-In . SVG Version: 6.00 Build 0)  -->
<svg version="1.1" id="Слой_1" xmlns="http://www.w3.org/2000/svg" xmlns:xlink="http://www.w3.org/1999/xlink" x="0px" y="0px"
	 viewBox="0 0 23 34" style="enable-background:new 0 0 23 34;" xml:space="preserve">
<path d="M7,4H2V3c0-0.6,0.5-1,1.1-1h2.8C6.5,2,7,2.5,7,3V4z M7,28H2V6h5L7,28z M4.5,32C4.5,32,4.5,32,4.5,32l-2-2h3.8L4.5,32z
	 M5.9,0H3.1C1.4,0,0,1.4,0,3v26.3c0,0.5,0.2,1,0.5,1.4L3,33.4C3.4,33.8,3.9,34,4.5,34s1.1-0.2,1.5-0.6l2.5-2.6
	C8.8,30.4,9,29.9,9,29.4V3C9,1.4,7.6,0,5.9,0z M14,34h9V0h-9V34z M21,5h-2.4v2H21v5h-3.4v2H21v5h-2.4v2H21v5h-3.4v2H21v4h-5V2h5V5z"
	/>
</svg>
