<?xml version="1.0" encoding="utf-8"?>
<!-- Generator: Adobe Illustrator 21.1.0, SVG Export Plug-In . SVG Version: 6.00 Build 0)  -->
<svg version="1.1" id="Слой_1" xmlns="http://www.w3.org/2000/svg" xmlns:xlink="http://www.w3.org/1999/xlink" x="0px" y="0px"
	 viewBox="0 0 26 34" style="enable-background:new 0 0 26 34;" xml:space="preserve">
<path d="M16.7,14.6c-0.5,0.4-0.8,0.9-1,1.4h-5.4c-0.2-0.6-0.5-1.1-1-1.4L7,12.6c-1-0.8-1.6-2-1.6-3.3V6h15.1v3.4
	c0,1.3-0.6,2.5-1.6,3.3L16.7,14.6z M19.1,21.8c0.9,0.8,1.4,2,1.4,3.2V28H5.4v-3.1c0-1.2,0.5-2.3,1.4-3.2l2.6-2.3
	c0.4-0.4,0.7-0.9,0.9-1.4h5.4c0.2,0.5,0.5,1,0.9,1.4L19.1,21.8z M23.2,30c0.5,0,0.8,0.4,0.8,0.8V32H2v-1.2C2,30.4,2.4,30,2.8,30
	H23.2z M2.8,4C2.4,4,2,3.6,2,3.2V2h22v1.2C24,3.6,23.6,4,23.2,4H2.8z M20.3,14.2c1.5-1.2,2.3-3,2.3-4.8V6h0.6C24.7,6,26,4.7,26,3.2
	V0H0v3.2C0,4.7,1.3,6,2.8,6h0.6v3.4c0,1.9,0.8,3.6,2.3,4.8L8,16.1c0.3,0.2,0.4,0.6,0.5,0.9c0,0.4-0.1,0.7-0.4,0.9l-2.6,2.3
	c-1.3,1.2-2.1,2.9-2.1,4.6V28H2.8C1.3,28,0,29.3,0,30.8V34h26v-3.2c0-1.6-1.3-2.8-2.8-2.8h-0.6v-3.1c0-1.7-0.8-3.4-2.1-4.6l-2.6-2.3
	c-0.3-0.2-0.4-0.6-0.4-0.9c0-0.4,0.2-0.7,0.5-0.9L20.3,14.2z"/>
</svg>
