<?xml version="1.0" encoding="utf-8"?>
<!-- Generator: Adobe Illustrator 21.1.0, SVG Export Plug-In . SVG Version: 6.00 Build 0)  -->
<svg version="1.1" id="Слой_1" xmlns="http://www.w3.org/2000/svg" xmlns:xlink="http://www.w3.org/1999/xlink" x="0px" y="0px"
	 viewBox="0 0 17 17" style="enable-background:new 0 0 17 17;" xml:space="preserve">
<path d="M15.5,0h-14C0.7,0,0,0.7,0,1.5v4.2h5.7C6.5,5,7.4,4.5,8.5,4.5c1.1,0,2,0.5,2.8,1.1H17V1.5C17,0.7,16.3,0,15.5,0L15.5,0z
	 M15.9,3.9c0,0.3-0.3,0.6-0.6,0.6h-2.2c-0.3,0-0.6-0.3-0.6-0.6V1.7c0-0.3,0.3-0.6,0.6-0.6h2.2c0.3,0,0.6,0.3,0.6,0.6V3.9z M11.3,9.1
	c0-1.6-1.3-2.8-2.8-2.8S5.7,7.5,5.7,9.1c0,1.6,1.3,2.8,2.8,2.8S11.3,10.6,11.3,9.1L11.3,9.1z M12.8,7.9C12.9,8.3,13,8.6,13,9
	c0,2.5-2,4.5-4.5,4.5S4,11.5,4,9c0-0.4,0-0.7,0.1-1.1H0v7.6C0,16.3,0.7,17,1.5,17h14c0.8,0,1.5-0.7,1.5-1.5V7.9H12.8z"/>
</svg>
