<?xml version="1.0" encoding="utf-8"?>
<!-- Generator: Adobe Illustrator 21.1.0, SVG Export Plug-In . SVG Version: 6.00 Build 0)  -->
<svg version="1.1" id="Слой_1" xmlns="http://www.w3.org/2000/svg" xmlns:xlink="http://www.w3.org/1999/xlink" x="0px" y="0px"
	 viewBox="0 0 15.8 15.7" style="enable-background:new 0 0 15.8 15.7;" xml:space="preserve">
<path d="M0.3,6.6L4.1,8C4.4,8.1,4.7,8.1,5,7.9l8.4-5.1l-7,6.3C6.3,9.3,6.1,9.5,6.1,9.8l0,5.5c0,0.5,0.7,0.6,0.9,0.2l1.9-4
	c0.1-0.2,0.4-0.3,0.7-0.2l4.9,2.6c0.3,0.2,0.7,0,0.7-0.4l0.6-13c0-0.3-0.3-0.6-0.7-0.4L0.3,5.8C-0.1,6-0.1,6.5,0.3,6.6"/>
</svg>
