<?xml version="1.0" encoding="utf-8"?>
<!-- Generator: Adobe Illustrator 21.1.0, SVG Export Plug-In . SVG Version: 6.00 Build 0)  -->
<svg version="1.1" id="Слой_1" xmlns="http://www.w3.org/2000/svg" xmlns:xlink="http://www.w3.org/1999/xlink" x="0px" y="0px"
	 viewBox="0 0 19 12.8" style="enable-background:new 0 0 19 12.8;" xml:space="preserve">
<path d="M15.1,2C15.1,2,15.1,1.9,15.1,2c-0.7-0.7-1.6-1-2.5-0.9l0,0l0,0c0.9-0.1,1.3-0.4,1.5-0.6c0-0.1,0-0.3-0.1-0.3
	c-0.4,0-0.9,0.1-1.2,0.3c0.4-0.3,0.6-0.4,0.6-0.6c-0.4,0-0.9,0.3-1.5,0.7C12,0.4,12.1,0.3,12,0.1c-0.3,0.1-0.4,0.3-0.6,0.6
	c-0.4,0.4-0.7,0.7-0.9,1.1l0,0c-0.6,1-1,1.9-1.3,2.9H9C8.7,4.3,8.2,3.9,7.6,3.6C7,3.1,6.3,2.9,5.4,2.4C4.5,2,3.6,1.6,2.5,1.3
	c0,1,0.4,1.9,1.5,2.4l0,0c-0.3,0-0.7,0-1,0.1c0,0.9,0.7,1.6,2.1,1.9l0,0c-0.4,0-0.9,0.1-1.3,0.4C4.2,7,4.9,7.3,6.1,7.3
	C6,7.4,5.7,7.6,5.7,7.6C5.5,7.7,5.4,8,5.5,8.3c0.3,0.4,0.6,0.6,1.3,0.6l0,0l0,0c-1,1-2.4,1.6-3.9,1.4l0,0C2.1,10.3,1,9.9,0,9
	c1,1.4,2.5,2.6,4.3,3.3c2.1,0.6,4.2,0.7,6.1,0.1l0,0c1.9-0.6,3.7-1.7,5.1-3.3c0.6-0.9,1-1.7,1.2-2.6c1,0,1.8-0.3,2.2-0.9l0,0
	c-0.3,0.1-1,0.1-2.1-0.1l0,0l0,0c1-0.1,1.8-0.4,1.9-1c-0.7,0.3-1.5,0.3-2.2,0C16.5,3.6,16,2.7,15.1,2L15.1,2z"/>
</svg>
