<?xml version="1.0" encoding="utf-8"?>
<!-- Generator: Adobe Illustrator 21.1.0, SVG Export Plug-In . SVG Version: 6.00 Build 0)  -->
<svg version="1.1" id="Слой_1" xmlns="http://www.w3.org/2000/svg" xmlns:xlink="http://www.w3.org/1999/xlink" x="0px" y="0px"
	 viewBox="0 0 22 19" style="enable-background:new 0 0 22 19;" xml:space="preserve">
<path d="M20.2,6l-4.4,1.8V5.9c0-0.7-0.6-1.3-1.3-1.3H5.8c-0.4,0-0.6-0.3-0.6-0.7V3.3c0-0.4,0.3-0.7,0.6-0.7h6.5
	c0.4,0,0.6-0.3,0.6-0.7V0.7c0-0.4-0.3-0.7-0.6-0.7H3.9C3.2,0,2.6,0.6,2.6,1.3v2.6c0,0.4-0.3,0.7-0.6,0.7H1.3C0.6,4.6,0,5.2,0,5.9
	v11.8C0,18.4,0.6,19,1.3,19h13.2c0.7,0,1.3-0.6,1.3-1.3v-2l4.4,1.9c0.9,0.4,1.8-0.3,1.8-1.2V7.2C22,6.3,21.1,5.6,20.2,6L20.2,6z
	 M13.2,15.7c0,0.4-0.3,0.7-0.6,0.7H3.2c-0.4,0-0.6-0.3-0.6-0.7V7.9c0-0.4,0.3-0.7,0.6-0.7h9.3c0.4,0,0.6,0.3,0.6,0.7V15.7L13.2,15.7
	z M19.4,13.4c0,0.5-0.5,0.8-0.9,0.6l-2.3-1c-0.2-0.1-0.4-0.3-0.4-0.6v-1.3c0-0.3,0.2-0.5,0.4-0.6l2.3-0.9c0.4-0.2,0.9,0.1,0.9,0.6
	V13.4L19.4,13.4z"/>
</svg>
