<?xml version="1.0" encoding="utf-8"?>
<!-- Generator: Adobe Illustrator 21.1.0, SVG Export Plug-In . SVG Version: 6.00 Build 0)  -->
<svg version="1.1" id="Слой_1" xmlns="http://www.w3.org/2000/svg" xmlns:xlink="http://www.w3.org/1999/xlink" x="0px" y="0px"
	 viewBox="0 0 46 22" style="enable-background:new 0 0 46 22;" xml:space="preserve">
<style type="text/css">
	.st0{fill:#FFFFFF;}
</style>
<path class="st0" d="M42.1,2.9c0-0.1,0-0.3,0-0.4c0-0.8,0.4-1.4,1.3-1.4c0.8,0,1.2,0.5,1.2,1.1c0,0.5-0.3,1-0.9,1.4l-1.2,0.8
	c-1.3,0.8-1.7,1.8-1.7,3H46V6.3h-3.6c0.1-0.4,0.4-0.6,0.7-0.8l1.4-0.9C45.4,4.1,46,3.3,46,2.3C46,1.1,45,0,43.4,0
	c-1.6,0-2.6,1.1-2.6,2.4c0,0.1,0,0.3,0,0.4L42.1,2.9z M35.3,3.9c0-0.9,0.2-1.6,0.5-2.1c0.2-0.3,0.6-0.5,1.1-0.5s0.9,0.2,1.1,0.5
	c0.3,0.5,0.5,1.2,0.5,2.1c0,0.9-0.2,1.6-0.5,2.1c-0.3,0.3-0.6,0.5-1.1,0.5S36,6.3,35.8,6C35.4,5.5,35.3,4.8,35.3,3.9L35.3,3.9z
	 M33.9,3.9c0,1,0.2,1.9,0.7,2.6c0.5,0.7,1.2,1.2,2.3,1.2s1.8-0.5,2.3-1.2c0.5-0.7,0.7-1.7,0.7-2.6c0-1-0.2-1.9-0.7-2.6
	C38.7,0.5,38,0,36.9,0S35,0.5,34.6,1.2C34.1,2,33.9,2.9,33.9,3.9z M4,22V9.1c0-3.2,2-5.4,4.9-5.4c3.1,0,4.4,2.1,4.4,4.9V22h4.1V9.1
	c0-3.1,2-5.4,4.8-5.4c3.1,0,4.4,2.1,4.4,4.9V22h4V8.1c0-5.6-3.6-8.1-7.2-8.1c-2.6,0-5.3,1-7,4c-1.1-2.8-3.6-4-6.3-4
	c-2.4,0-5,1.1-6.3,3.5V0.6H0V22H4z"/>
</svg>
